<?xml version="1.0" encoding="UTF-8"?>
<svg id="_레이어_1" data-name="레이어 1" xmlns="http://www.w3.org/2000/svg" viewBox="0 0 203 30">
  <defs>
    <style>
      .cls-1 {
        fill: #7d4094;
      }

      .cls-2 {
        fill: #2297d5;
      }

      .cls-3 {
        fill: #231815;
      }

      .cls-4 {
        fill: #21469a;
      }

      .cls-5 {
        fill: #213c95;
      }

      .cls-6 {
        fill: #6f3a91;
      }

      .cls-7 {
        fill: #645da6;
      }

      .cls-8 {
        fill: #283590;
      }

      .cls-9 {
        fill: #2a80c3;
      }

      .cls-10 {
        fill: #2a8dcd;
      }

      .cls-11 {
        fill: #2871b8;
      }

      .cls-12 {
        fill: #29499c;
      }

      .cls-13 {
        fill: #263691;
      }

      .cls-14 {
        fill: #2d7fc2;
      }

      .cls-15 {
        fill: #38308e;
      }

      .cls-16 {
        fill: #3859a6;
      }

      .cls-17 {
        fill: #258ece;
      }

      .cls-18 {
        fill: #2e66b0;
      }

      .cls-19 {
        fill: #495ea9;
      }

      .cls-20 {
        fill: #472e8d;
      }

      .cls-21 {
        fill: #5e4d9d;
      }

      .cls-22 {
        fill: #503992;
      }

      .cls-23 {
        fill: #307bbf;
      }

      .cls-24 {
        fill: #3079be;
      }
    </style>
  </defs>
  <g>
    <path class="cls-3" d="M56.98,17.82c-1.92-1.75-3.78-4.57-3.78-8.2v-.39c0-3.61,1.86-6.43,3.78-8.18h2.27c-1.81,1.97-3.34,4.83-3.34,8.02v.57c0,3.13,1.53,6.19,3.34,8.18h-2.27Z"/>
    <path class="cls-3" d="M66.03,17.8v-5.79h-6.47v-2.14h15.7v2.14h-6.54v5.79h-2.69Zm2.99-14.48c.44,1.79,2.86,3.1,5.25,3.37l-1.05,2.1c-2.03-.2-4.81-1.7-5.81-3.32-.92,1.7-3.63,3.11-5.77,3.35l-1.11-2.1c2.41-.26,4.83-1.6,5.27-3.41h-4.59V1.16h12.35V3.32h-4.55Z"/>
    <path class="cls-3" d="M75.49,17.82c1.81-1.97,3.35-4.85,3.35-8v-.61c0-3.08-1.55-6.17-3.35-8.16h2.25c1.92,1.73,3.76,4.59,3.76,8.18v.37c0,3.65-1.84,6.49-3.76,8.22h-2.25Z"/>
    <path class="cls-3" d="M88.79,1.71c2.93,0,4.79,1.92,4.79,4.37s-1.86,4.31-4.79,4.31-4.74-1.86-4.74-4.33,1.82-4.35,4.74-4.35Zm0,6.45c1.25,0,2.08-.88,2.08-2.1s-.83-2.1-2.08-2.1-2.03,.9-2.03,2.12,.77,2.08,2.03,2.08Zm-3.12,9.45v-5.92h2.71v3.8h10.1v2.12h-12.81Zm9.75-4.57V.57h2.69V13.05h-2.69Z"/>
    <path class="cls-3" d="M101.51,1.92h7.96v2.14h-5.29v6.8c2.12,.04,5.51,.02,8.46-.97v2.21c-1.84,1.05-8.09,1.12-11.13,1.01V1.92Zm10.74-1.35h2.69V17.27h-2.69V.57Z"/>
    <path class="cls-3" d="M121.54,1.57c2.6,0,4.05,2.1,4.05,4.37s-1.46,4.28-4.04,4.28-4.09-2.06-4.09-4.28,1.47-4.37,4.07-4.37Zm0,6.39c.85,0,1.6-.9,1.6-2.05s-.76-2.08-1.6-2.08-1.6,.96-1.6,2.1,.74,2.03,1.6,2.03Zm-1.75,9.75v-5.88h2.67v3.72h10.25v2.16h-12.92Zm10.04-4.4V7.37h-1.03v5.38h-2.45V.85h2.45V5.2h1.03V.57h2.54V13.3h-2.54Z"/>
    <path class="cls-3" d="M134.4,15.28v-2.16h15.7v2.16h-15.7Zm2.14-5.27V1.69h11.48V3.87h-8.81V7.89h8.92v2.12h-11.59Z"/>
    <path class="cls-3" d="M151.34,15.46v-2.12h5.42v-3.67h2.69v3.67h7.61v2.12h-15.72Zm13.93-11.11c0,3-.54,7.4-1.38,9.58l-2.54-.22c.48-1.34,.99-4.37,1.12-5.66l-9.36,.57-.33-2.25,9.82-.42v-1.88h-9.23V1.92h11.9v2.43Z"/>
    <path class="cls-3" d="M180.97,12.35c-2.66,1.01-7.83,1.12-11.69,1.01V6.21h5.31V3.92h-5.34V1.79h8.02v6.54h-5.31v2.89c1.66,.04,5.45,.04,8.72-.91l.3,2.04Zm-.8-11.78h2.67V17.27h-2.67V.57Z"/>
    <path class="cls-3" d="M190,1.6c2.86,0,4.7,2.38,4.7,5.77s-1.84,5.73-4.7,5.73-4.72-2.36-4.72-5.71,1.88-5.79,4.72-5.79Zm0,9.25c1.16,0,2.08-1.25,2.08-3.5s-.92-3.54-2.08-3.54-2.06,1.29-2.06,3.54,.9,3.5,2.06,3.5Zm8.94-2.19v8.62h-2.69V.57h2.69V6.45h2.56v2.21h-2.56Z"/>
  </g>
  <g>
    <polygon class="cls-10" points="14.02 9.05 9.89 .44 9.83 .44 9.81 .49 9.57 21.05 14.02 9.05"/>
    <polygon class="cls-23" points="9.57 21.05 9.81 .49 4.75 14.43 8.85 23 9.57 21.05"/>
    <polygon class="cls-8" points="1.5 23.41 8.7 23.41 8.85 23 4.75 14.43 1.5 23.41"/>
    <polygon class="cls-14" points="17.2 .44 9.89 .44 14.01 9.05 17.2 .44"/>
    <polygon class="cls-9" points="39.7 .44 39.45 1.05 42.12 7.43 46.8 1.11 47.07 .44 39.7 .44"/>
    <polygon class="cls-2" points="42.12 7.43 39.45 1.05 38.36 3.76 38.5 12.32 42.12 7.43"/>
    <polygon class="cls-24" points="38.5 12.32 38.36 3.76 34.15 14.2 35.14 16.85 38.5 12.32"/>
    <polygon class="cls-4" points="37.57 23.4 35.14 16.85 33.79 18.67 37.57 23.4"/>
    <polygon class="cls-18" points="43.2 10.03 46.8 1.11 42.12 7.43 43.2 10.03"/>
    <polygon class="cls-4" points="37.55 23.31 37.56 23.31 37.54 23.29 37.55 23.31"/>
    <polygon class="cls-11" points="35.14 16.85 37.57 23.4 37.59 23.41 37.79 23.41 38.64 21.3 38.5 12.32 35.14 16.85"/>
    <polygon class="cls-17" points="42.12 7.43 38.5 12.32 38.64 21.3 43.2 10.03 42.12 7.43"/>
    <polygon class="cls-15" points="26.82 .64 23.38 5.67 24.61 7.21 26.98 .94 26.82 .64"/>
    <polygon class="cls-13" points="33.79 18.67 30.51 23.1 30.56 23.41 37.58 23.41 37.57 23.4 33.79 18.67"/>
    <polygon class="cls-7" points="24.61 7.21 28.75 12.38 26.9 1.14 24.61 7.21"/>
    <polygon class="cls-1" points="19.35 .84 10.93 23.41 11.25 23.41 22.38 7.13 19.35 .84"/>
    <polygon class="cls-21" points="28.75 12.38 24.61 7.21 23.67 9.72 24.61 7.21 23.38 5.67 22.38 7.13 23.64 9.75 23.65 9.71 30.41 23.41 30.56 23.41 28.75 12.38"/>
    <polygon class="cls-6" points="11.25 23.41 18.57 23.41 23.64 9.75 22.38 7.13 11.25 23.41"/>
    <polygon class="cls-20" points="23.38 5.67 19.4 .71 19.35 .84 22.38 7.13 23.38 5.67"/>
    <polygon class="cls-5" points="30.47 22.84 30.51 23.1 33.79 18.67 32.78 17.41 30.47 22.84"/>
    <polygon class="cls-16" points="28.75 12.38 30.47 22.84 32.78 17.41 28.75 12.38"/>
    <polygon class="cls-12" points="33.79 18.67 35.14 16.85 34.15 14.2 33.97 14.65 33.96 14.63 32.78 17.41 33.79 18.67"/>
    <polygon class="cls-19" points="28.75 12.38 32.78 17.41 33.96 14.63 26.98 .94 26.9 1.14 28.75 12.38"/>
    <g>
      <line class="cls-22" x1="26.72" y1=".44" x2="26.82" y2=".64"/>
      <polygon class="cls-22" points="26.72 .44 19.5 .44 19.4 .71 23.38 5.67 26.82 .64 26.72 .44"/>
    </g>
  </g>
  <g>
    <path class="cls-3" d="M108.05,22.78c.17-.04,.44-.04,.64,0,.02,.96,.02,5.21,0,6.1-.23,.04-.44,.04-.64,0-.02-.87-.02-5.13,0-6.1Z"/>
    <path class="cls-3" d="M109.83,22.78c.23-.03,.55-.03,.74,0,.6,1.05,2.32,4.13,2.81,5.07-.02-.74-.02-4.16,0-5.06,.21-.04,.47-.04,.64,0,.02,1.12,.02,4.84,0,6.1-.2,.03-.48,.03-.72,0-.57-.99-2.32-4.14-2.84-5.11,.02,.81,.02,4.24,0,5.1-.2,.05-.43,.04-.64,0-.02-1.1-.02-4.8,0-6.1Z"/>
    <path class="cls-3" d="M120.65,23.36c-.42,0-1.09,0-1.8,0,0,1.2,0,4.96,0,5.51-.23,.04-.45,.04-.65,0-.02-.53-.02-4.3,0-5.51-.69,0-1.36,0-1.8,0-.02-.2-.02-.4,0-.59,1-.02,3.28-.02,4.26,0,.02,.21,.02,.35,0,.59Z"/>
    <path class="cls-3" d="M125.42,28.88c-.18,.04-.41,.04-.64,0,0-.33,0-1.54,0-2.81-.66,0-2.03,0-2.67,0,0,1.27,0,2.48,0,2.81-.23,.04-.44,.04-.64,0-.02-.67-.02-5.33,0-6.1,.17-.04,.44-.04,.64,0,0,.35,0,1.47,0,2.68,.65,0,1.97,0,2.67,0,0-1.2,0-2.33,0-2.68,.2-.04,.47-.04,.64,0,.03,.77,.03,5.43,0,6.1Z"/>
    <path class="cls-3" d="M130.12,28.88c-.65,.02-2.85,.02-3.54,0-.02-1.26-.02-4.84,0-6.1,.73-.02,2.82-.02,3.49,0,.03,.2,.03,.39,0,.59-.58,.02-2.4,0-2.82,0,0,.34,0,1.2,0,2.11,.72,0,2.02,0,2.51,0,.03,.2,.03,.41,0,.6-.5,.02-1.78,.02-2.51,0,0,.97,0,1.89,0,2.2,.4-.02,2.34-.02,2.87,0,.03,.2,.03,.38,0,.59Z"/>
    <path class="cls-3" d="M136.23,28.88c-.65,.02-2.85,.02-3.54,0-.02-1.26-.02-4.84,0-6.1,.73-.02,2.82-.02,3.49,0,.03,.2,.03,.39,0,.59-.58,.02-2.4,0-2.82,0,0,.34,0,1.2,0,2.11,.72,0,2.02,0,2.51,0,.03,.2,.03,.41,0,.6-.5,.02-1.78,.02-2.51,0,0,.97,0,1.89,0,2.2,.4-.02,2.34-.02,2.87,0,.03,.2,.03,.38,0,.59Z"/>
    <path class="cls-3" d="M137.22,22.78c.23-.03,.55-.03,.74,0,.6,1.05,2.32,4.13,2.81,5.07-.02-.74-.02-4.16,0-5.06,.21-.04,.47-.04,.64,0,.02,1.12,.02,4.84,0,6.1-.2,.03-.48,.03-.72,0-.57-.99-2.32-4.14-2.84-5.11,.02,.81,.02,4.24,0,5.1-.2,.05-.43,.04-.64,0-.02-1.1-.02-4.8,0-6.1Z"/>
    <path class="cls-3" d="M142.56,22.78c.43-.02,1.17-.02,1.65,0,1.88,.05,2.7,1.11,2.7,3.05s-.83,3.03-2.7,3.06c-.38,0-1.23,0-1.65,0-.02-.55-.02-5.41,0-6.1Zm1.67,5.48c1.4-.05,2.02-.8,2.02-2.44s-.62-2.38-2.02-2.44c-.35,0-.74,0-1.03,0,.02,.77,.02,4.3,0,4.87,.29,.02,.71,.02,1.03,0Z"/>
    <path class="cls-3" d="M153.34,28.64c-.11,.16-.29,.32-.47,.41-.74-.75-1.93-1.96-2.8-2.88v2.71c-.23,.04-.44,.04-.64,0-.03-.87-.02-5.13,0-6.1,.17-.04,.44-.04,.64,0v2.47c.86-.9,2.02-2.08,2.53-2.6,.17,.08,.36,.26,.47,.41-.62,.68-2.03,2.08-2.64,2.65,.66,.64,2.21,2.18,2.91,2.93Z"/>
    <path class="cls-3" d="M153.55,25.84c0-2.18,.87-3.14,2.47-3.14s2.47,.96,2.47,3.14-.89,3.14-2.47,3.14-2.47-.96-2.47-3.14Zm4.29,0c0-1.78-.59-2.56-1.82-2.56s-1.82,.74-1.82,2.56,.63,2.56,1.82,2.56,1.82-.72,1.82-2.56Z"/>
    <path class="cls-3" d="M162.87,28.96c-.47-.68-1.14-1.75-1.65-2.59-.27,0-.8,0-1.2,0,0,1.09,0,2.14,0,2.51-.2,.04-.44,.04-.64,0-.02-.94-.02-5.33,0-6.1,.74-.02,1.44-.02,2.01,0,1.24,.04,1.84,.74,1.84,1.78,0,.97-.5,1.54-1.32,1.74,.51,.77,1.15,1.78,1.5,2.34-.15,.14-.32,.26-.53,.32Zm-1.65-3.2c.94-.03,1.34-.43,1.34-1.18s-.4-1.15-1.26-1.18c-.42-.02-.91-.02-1.29,0,0,.21,0,1.24,0,2.37,.41,0,.91,0,1.2,0Z"/>
    <path class="cls-3" d="M167.82,28.88c-.65,.02-2.85,.02-3.54,0-.02-1.26-.02-4.84,0-6.1,.73-.02,2.82-.02,3.49,0,.03,.2,.03,.39,0,.59-.58,.02-2.4,0-2.82,0,0,.34,0,1.2,0,2.11,.72,0,2.02,0,2.51,0,.03,.2,.03,.41,0,.6-.5,.02-1.78,.02-2.51,0,0,.97,0,1.89,0,2.2,.4-.02,2.34-.02,2.87,0,.03,.2,.03,.38,0,.59Z"/>
    <path class="cls-3" d="M172.7,28.98c-.13-.35-.33-.96-.56-1.64-.59,0-1.9,0-2.56,0-.23,.68-.44,1.29-.56,1.64-.23-.03-.45-.1-.62-.18,.32-1.02,1.5-4.51,2.04-6.02,.26-.03,.61-.03,.84,0,.54,1.51,1.72,5,2.04,6.02-.16,.08-.4,.16-.62,.18Zm-.76-2.23c-.4-1.19-.83-2.5-1.08-3.28-.25,.77-.68,2.09-1.08,3.28,.62,0,1.58,0,2.17,0Z"/>
    <path class="cls-3" d="M175.41,25.84c0-2.2,1-3.15,2.5-3.15,.76,0,1.29,.17,1.82,.65-.1,.18-.23,.36-.39,.46-.4-.32-.79-.5-1.43-.5-1.08,0-1.84,.71-1.84,2.54s.77,2.54,1.87,2.54c.62,0,1.1-.18,1.51-.51,.14,.12,.28,.3,.38,.48-.54,.46-1.1,.64-1.89,.64-1.53,0-2.53-.96-2.53-3.15Z"/>
    <path class="cls-3" d="M180.36,26.7c0-1.53,.68-2.3,1.97-2.3s1.96,.77,1.96,2.3-.68,2.29-1.96,2.29-1.97-.76-1.97-2.29Zm3.3,0c0-1.24-.49-1.72-1.33-1.72s-1.33,.47-1.33,1.72,.48,1.71,1.33,1.71,1.33-.47,1.33-1.71Z"/>
    <path class="cls-3" d="M185.11,28.1c.29-.02,.53-.02,.8,0,.02,.28,.02,.53,0,.8-.27,.02-.52,.02-.8,0-.02-.28-.02-.53,0-.8Z"/>
    <path class="cls-3" d="M186.87,28.1c.23-.03,.58-.03,.8,0-.03,.37-.14,1.09-.2,1.44-.15,.02-.43,.02-.59,0-.02-.33,0-1.11,0-1.44Z"/>
    <path class="cls-3" d="M188.67,22.78c.2-.04,.47-.04,.65,0,.02,1.13,.02,4.63,0,5.51,.45-.02,2.09-.02,2.7,0,.02,.18,.02,.41,0,.59-.62,.02-2.69,.02-3.35,0,0-1.28,0-4.9,0-6.1Z"/>
    <path class="cls-3" d="M196.18,23.36c-.42,0-1.09,0-1.8,0,0,1.2,0,4.96,0,5.51-.23,.04-.45,.04-.65,0-.02-.53-.02-4.3,0-5.51-.69,0-1.36,0-1.8,0-.02-.2-.02-.4,0-.59,1-.02,3.28-.02,4.26,0,.02,.21,.02,.35,0,.59Z"/>
    <path class="cls-3" d="M196.99,22.78c.43-.02,1.17-.02,1.65,0,1.88,.05,2.7,1.11,2.7,3.05s-.83,3.03-2.7,3.06c-.38,0-1.23,0-1.65,0-.02-.55-.02-5.41,0-6.1Zm1.67,5.48c1.4-.05,2.02-.8,2.02-2.44s-.62-2.38-2.02-2.44c-.35,0-.74,0-1.03,0,.02,.77,.02,4.3,0,4.87,.29,.02,.71,.02,1.03,0Z"/>
  </g>
</svg>