<svg xmlns="http://www.w3.org/2000/svg" width="100" height="100" viewBox="0 0 100 100">
    <defs>
        <clipPath id="pq7zwfyg1a">
            <path data-name="사각형 763" transform="translate(1280 1039)" style="stroke:#707070;fill:#fff" d="M0 0h60v60H0z"/>
        </clipPath>
    </defs>
    <g data-name="그룹 3601">
        <g data-name="타원 66" style="stroke:#eee;fill:#fff">
            <circle cx="50" cy="50" r="50" style="stroke:none"/>
            <circle cx="50" cy="50" r="49.5" style="fill:none"/>
        </g>
        <g data-name="마스크 그룹 41" style="clip-path:url(#pq7zwfyg1a)" transform="translate(-1260 -1019)">
            <path data-name="사각형 848" style="fill:none" d="M0 0h60v60H0z" transform="translate(1280 1039)"/>
            <g data-name="그룹 3713">
                <g data-name="그룹 3706">
                    <g data-name="그룹 3705">
                        <path data-name="패스 5162" d="M33.69 14.87h13.586a3.026 3.026 0 0 1 3.032 3.018v26.1" style="stroke-linecap:round;stroke-linejoin:round;stroke-width:2px;stroke:#595656;fill:#fff" transform="translate(1280 1039)"/>
                        <path data-name="선 206" transform="translate(1291.822 1070.236)" style="stroke-linecap:round;stroke-linejoin:round;stroke-width:2px;stroke:#595656;fill:#fff" d="M0 12.756V0"/>
                        <path data-name="패스 5163" d="M33.69 18.386H46.6V39.83H15.528v-8.594" style="stroke-linecap:round;stroke-linejoin:round;stroke-width:2px;stroke:#595656;fill:#fff" transform="translate(1280 1039)"/>
                    </g>
                    <path data-name="패스 5164" d="M37.226 43.992a2.9 2.9 0 0 1-2.808 2.166H27.71a2.907 2.907 0 0 1-2.81-2.166H6.13v1.642a3.2 3.2 0 0 0 3.208 3.194h43.454A3.2 3.2 0 0 0 56 45.634v-1.642H37.226z" style="stroke-linecap:round;stroke-linejoin:round;stroke-width:2px;stroke:#595656;fill:#fff" transform="translate(1280 1039)"/>
                </g>
                <g data-name="그룹 3712">
                    <path data-name="패스 5165" d="M33.69 11.172H4v20.064h13.306l6.112 4.864v-4.864H33.69z" style="stroke:#fdb812;stroke-linecap:round;stroke-linejoin:round;stroke-width:2px;fill:none" transform="translate(1280 1039)"/>
                    <g data-name="그룹 3711">
                        <g data-name="그룹 3708">
                            <path data-name="패스 5166" d="m8.356 16.836 1.662 1.854 1.956-2.866" style="stroke:#fdb812;stroke-linecap:round;stroke-linejoin:round;stroke-width:2px;fill:none" transform="translate(1280 1039)"/>
                            <g data-name="그룹 3707">
                                <path data-name="선 207" transform="translate(1294.29 1054.872)" style="stroke:#fdb812;stroke-linecap:round;stroke-linejoin:round;stroke-width:2px;fill:none" d="M0 0h14.408"/>
                                <path data-name="선 208" transform="translate(1294.29 1057.754)" style="stroke:#fdb812;stroke-linecap:round;stroke-linejoin:round;stroke-width:2px;fill:none" d="M0 0h6.012"/>
                            </g>
                        </g>
                        <g data-name="그룹 3710">
                            <path data-name="패스 5167" d="m8.356 24.812 1.662 1.856 1.956-2.87" style="stroke:#fdb812;stroke-linecap:round;stroke-linejoin:round;stroke-width:2px;fill:none" transform="translate(1280 1039)"/>
                            <g data-name="그룹 3709">
                                <path data-name="선 209" transform="translate(1294.29 1062.846)" style="stroke:#fdb812;stroke-linecap:round;stroke-linejoin:round;stroke-width:2px;fill:none" d="M0 0h14.408"/>
                                <path data-name="선 210" transform="translate(1294.29 1065.73)" style="stroke:#fdb812;stroke-linecap:round;stroke-linejoin:round;stroke-width:2px;fill:none" d="M0 0h6.012"/>
                            </g>
                        </g>
                    </g>
                </g>
            </g>
        </g>
    </g>
</svg>
