<svg xmlns="http://www.w3.org/2000/svg" width="100" height="100" viewBox="0 0 100 100">
    <defs>
        <clipPath id="keoa7mct6a">
            <path data-name="사각형 768" transform="translate(1280 862)" style="stroke:#707070;fill:#fff" d="M0 0h60v60H0z"/>
        </clipPath>
    </defs>
    <g data-name="그룹 3606">
        <g data-name="패스 5062" style="fill:#fff">
            <path d="M50 99.5c-6.683 0-13.165-1.309-19.267-3.89a49.336 49.336 0 0 1-15.735-10.608A49.336 49.336 0 0 1 4.39 69.267C1.809 63.165.5 56.683.5 50s1.309-13.165 3.89-19.267a49.336 49.336 0 0 1 10.608-15.735A49.336 49.336 0 0 1 30.733 4.39C36.835 1.809 43.317.5 50 .5s13.165 1.309 19.267 3.89a49.336 49.336 0 0 1 15.735 10.608A49.336 49.336 0 0 1 95.61 30.733C98.191 36.835 99.5 43.317 99.5 50s-1.309 13.165-3.89 19.267a49.335 49.335 0 0 1-10.608 15.735A49.335 49.335 0 0 1 69.267 95.61C63.165 98.191 56.683 99.5 50 99.5z" style="stroke:none"/>
            <path d="M50 1c-6.615 0-13.032 1.295-19.073 3.85a48.838 48.838 0 0 0-15.575 10.502c-4.5 4.5-8.034 9.74-10.502 15.575C2.295 36.967 1 43.385 1 50s1.295 13.032 3.85 19.073a48.838 48.838 0 0 0 10.502 15.575c4.5 4.5 9.74 8.034 15.575 10.502C36.967 97.705 43.385 99 50 99s13.032-1.295 19.073-3.85a48.838 48.838 0 0 0 15.575-10.502c4.5-4.5 8.034-9.74 10.502-15.575C97.705 63.033 99 56.615 99 50s-1.295-13.032-3.85-19.073a48.838 48.838 0 0 0-10.502-15.575c-4.5-4.5-9.74-8.034-15.575-10.502C63.033 2.295 56.615 1 50 1m0-1c27.614 0 50 22.386 50 50s-22.386 50-50 50S0 77.614 0 50 22.386 0 50 0z" style="fill:#eee;stroke:none"/>
        </g>
        <g style="clip-path:url(#keoa7mct6a)" transform="translate(-1260 -842)">
            <g style="isolation:isolate" data-name="마스크 그룹 42">
                <g data-name="그룹 3715" transform="translate(1280 862)">
                    <rect data-name="사각형 849" width="28.842" height="52" rx="3" transform="translate(15.58 4)" style="stroke-linecap:round;stroke-linejoin:round;stroke-width:2px;stroke:#595656;fill:#fff"/>
                    <path data-name="선 211" transform="translate(15.58 48)" style="mix-blend-mode:darken;stroke-linecap:round;stroke-linejoin:round;stroke-width:2px;stroke:#595656;isolation:isolate;fill:#fff" d="M28.84 0H0"/>
                    <g data-name="그룹 3714">
                        <path data-name="패스 5168" d="M19.686 12.654h-6.874l5.34-5.694h4.74z" style="stroke-linecap:round;stroke-linejoin:round;stroke-width:2px;stroke:#595656;fill:#fff"/>
                        <path data-name="패스 5169" d="M26.562 12.654h-6.876l3.206-5.694h4.738z" style="stroke-linecap:round;stroke-linejoin:round;stroke-width:2px;stroke:#595656;fill:#fff"/>
                        <path data-name="패스 5170" d="M33.438 12.654h-6.876L27.63 6.96h4.74z" style="stroke-linecap:round;stroke-linejoin:round;stroke-width:2px;stroke:#595656;fill:#fff"/>
                        <path data-name="패스 5171" d="M40.314 12.654h-6.876L32.37 6.96h4.738z" style="stroke-linecap:round;stroke-linejoin:round;stroke-width:2px;stroke:#595656;fill:#fff"/>
                        <path data-name="패스 5172" d="M47.188 12.654h-6.874L37.108 6.96h4.74z" style="stroke-linecap:round;stroke-linejoin:round;stroke-width:2px;stroke:#595656;fill:#fff"/>
                        <path data-name="패스 5173" d="M12.812 12.654h6.876v4.188a3.439 3.439 0 0 1-3.438 3.438h0a3.439 3.439 0 0 1-3.438-3.438v-4.188h0z" style="stroke-linecap:round;stroke-linejoin:round;stroke-width:2px;stroke:#595656;fill:#fff"/>
                        <path data-name="패스 5174" d="M19.686 12.654h6.876v4.188a3.439 3.439 0 0 1-3.438 3.438h0a3.439 3.439 0 0 1-3.438-3.438v-4.188h0z" style="stroke-linecap:round;stroke-linejoin:round;stroke-width:2px;stroke:#595656;fill:#fff"/>
                        <path data-name="패스 5175" d="M26.562 12.654h6.876v4.188A3.439 3.439 0 0 1 30 20.28h0a3.439 3.439 0 0 1-3.438-3.438v-4.188h0z" style="stroke-linecap:round;stroke-linejoin:round;stroke-width:2px;stroke:#595656;fill:#fff"/>
                        <path data-name="패스 5176" d="M33.438 12.654h6.876v4.188a3.439 3.439 0 0 1-3.438 3.438h0a3.439 3.439 0 0 1-3.438-3.438v-4.188h0z" style="stroke-linecap:round;stroke-linejoin:round;stroke-width:2px;stroke:#595656;fill:#fff"/>
                        <path data-name="패스 5177" d="M40.314 12.654h6.876v4.188a3.439 3.439 0 0 1-3.438 3.438h0a3.439 3.439 0 0 1-3.438-3.438v-4.188h0z" style="stroke-linecap:round;stroke-linejoin:round;stroke-width:2px;stroke:#595656;fill:#fff"/>
                    </g>
                    <path data-name="선 212" transform="translate(28.7 52)" style="stroke-linecap:round;stroke-linejoin:round;stroke-width:2px;stroke:#595656;fill:#fff" d="M0 0h2.6"/>
                    <path data-name="패스 5178" d="M30 40.088s6.824-4.164 7.058-8.276S32.756 25.17 30 28.918c-2.756-3.748-7.276-1.218-7.058 2.894S30 40.088 30 40.088z" style="stroke:#fdb812;fill:none;stroke-linecap:round;stroke-linejoin:round;stroke-width:2px"/>
                </g>
                <path data-name="사각형 850" style="fill:none" d="M0 0h60v60H0z" transform="translate(1280 862)"/>
            </g>
        </g>
    </g>
</svg>
