<svg xmlns="http://www.w3.org/2000/svg" width="100" height="100" viewBox="0 0 100 100">
    <defs>
        <clipPath id="lbdiuef15a">
            <path data-name="사각형 767" transform="translate(930 862)" style="stroke:#707070;fill:#fff" d="M0 0h60v60H0z"/>
        </clipPath>
    </defs>
    <g data-name="그룹 3605">
        <g data-name="타원 64" style="stroke:#eee;fill:#fff">
            <circle cx="50" cy="50" r="50" style="stroke:none"/>
            <circle cx="50" cy="50" r="49.5" style="fill:none"/>
        </g>
        <g data-name="마스크 그룹 38" style="clip-path:url(#lbdiuef15a)" transform="translate(-910 -842)">
            <path data-name="사각형 838" style="fill:none" d="M0 0h60v60H0z" transform="translate(930 862)"/>
            <g data-name="그룹 3694">
                <g data-name="그룹 3691" style="isolation:isolate">
                    <path data-name="패스 5139" d="m13.01 14.918 16.95-9.85 17.058 9.85-16.948 9.848" style="stroke-linecap:round;stroke-linejoin:round;stroke-width:2px;stroke:#595656;fill:#fff" transform="translate(930 862)"/>
                    <path data-name="패스 5140" d="M47.018 14.918 46.99 32.26l-16.95 9.85.03-17.344z" style="stroke-linecap:round;stroke-linejoin:round;stroke-width:2px;stroke:#595656;fill:#fff" transform="translate(930 862)"/>
                    <path data-name="패스 5141" d="m23.658 21.066 6.412 3.7-.03 17.344-17.058-9.85.028-17.342 5.468 3.156" style="stroke-linecap:round;stroke-linejoin:round;stroke-width:2px;stroke:#595656;fill:#fff" transform="translate(930 862)"/>
                </g>
                <path data-name="패스 5142" d="m35.46 8.244-16.982 9.83v5.682l5.18 3.066v-5.756L40.4 11.1z" style="stroke:#fdb812;stroke-linecap:round;stroke-linejoin:round;stroke-width:2px;fill:none" transform="translate(930 862)"/>
                <g data-name="그룹 3692">
                    <path data-name="패스 5143" d="M11.862 54.932V52.5l-6.3-6.3A5.347 5.347 0 0 1 4 42.418V30.5a1.921 1.921 0 0 1 1.922-1.922h0A1.921 1.921 0 0 1 7.844 30.5v10.148l.492.436" style="stroke-linecap:round;stroke-linejoin:round;stroke-width:2px;stroke:#595656;fill:#fff" transform="translate(930 862)"/>
                    <path data-name="패스 5144" d="M13.12 47.068 8.9 42.822a2.01 2.01 0 0 1-.074-2.762h0a2.008 2.008 0 0 1 2.912-.078l6.428 6.428a4.791 4.791 0 0 1 1.4 3.39v5.13" style="stroke-linecap:round;stroke-linejoin:round;stroke-width:2px;stroke:#595656;fill:#fff" transform="translate(930 862)"/>
                </g>
                <g data-name="그룹 3693">
                    <path data-name="패스 5145" d="M48.138 54.932V52.5l6.3-6.3A5.347 5.347 0 0 0 56 42.418V30.5a1.921 1.921 0 0 0-1.922-1.922h0a1.921 1.921 0 0 0-1.922 1.922v10.148l-.492.436" style="stroke-linecap:round;stroke-linejoin:round;stroke-width:2px;stroke:#595656;fill:#fff" transform="translate(930 862)"/>
                    <path data-name="패스 5146" d="m46.88 47.068 4.22-4.246a2.01 2.01 0 0 0 .074-2.762h0a2.008 2.008 0 0 0-2.912-.078l-6.426 6.428a4.791 4.791 0 0 0-1.4 3.39v5.13" style="stroke-linecap:round;stroke-linejoin:round;stroke-width:2px;stroke:#595656;fill:#fff" transform="translate(930 862)"/>
                </g>
            </g>
        </g>
    </g>
</svg>
