<svg xmlns="http://www.w3.org/2000/svg" width="100" height="100" viewBox="0 0 100 100">
    <defs>
        <clipPath id="9qagnlog7a">
            <path data-name="사각형 762" transform="translate(1280 1052)" style="stroke:#707070;fill:#fff" d="M0 0h60v60H0z"/>
        </clipPath>
    </defs>
    <g data-name="그룹 3600">
        <g data-name="타원 66" style="stroke:#eee;fill:#fff">
            <circle cx="50" cy="50" r="50" style="stroke:none"/>
            <circle cx="50" cy="50" r="49.5" style="fill:none"/>
        </g>
        <g data-name="마스크 그룹 35" style="clip-path:url(#9qagnlog7a)" transform="translate(-1260 -1032)">
            <path data-name="사각형 831" style="fill:none" d="M0 0h60v60H0z" transform="translate(1280 1052)"/>
            <g data-name="그룹 3687">
                <g data-name="그룹 3685">
                    <path data-name="선 189" transform="translate(1299.032 1100.154)" style="stroke-linecap:round;stroke-linejoin:round;stroke-width:2px;stroke:#595656;fill:#fff" d="M0 4.674 1.54 0"/>
                    <path data-name="선 190" transform="translate(1319.426 1100.154)" style="stroke-linecap:round;stroke-linejoin:round;stroke-width:2px;stroke:#595656;fill:#fff" d="m0 0 1.542 4.674"/>
                    <g data-name="그룹 3684">
                        <path data-name="패스 5127" d="M17.96 9.778H9.342A5.321 5.321 0 0 0 4 15.078V40.52h52V15.078a5.321 5.321 0 0 0-5.342-5.3H42.28" style="stroke-linecap:round;stroke-linejoin:round;stroke-width:2px;stroke:#595656;fill:#fff" transform="translate(1280 1052)"/>
                        <path data-name="패스 5128" d="M4 40.52v1.744a5.319 5.319 0 0 0 5.342 5.3h41.316a5.322 5.322 0 0 0 5.342-5.3V40.52z" style="stroke-linecap:round;stroke-linejoin:round;stroke-width:2px;stroke:#595656;fill:#fff" transform="translate(1280 1052)"/>
                    </g>
                    <path data-name="사각형 832" transform="translate(1294.234 1105.234)" style="stroke-linecap:round;stroke-linejoin:round;stroke-width:2px;stroke:#595656;fill:#fff" d="M0 0h31.53v2.766H0z"/>
                </g>
                <g data-name="그룹 3686">
                    <path data-name="패스 5129" d="M24.928 29.184a11.047 11.047 0 0 0 1.948.81l.958 4.822H32.4l.958-4.822a10.984 10.984 0 0 0 1.948-.81l4.094 2.734 3.23-3.23-2.736-4.088a11.047 11.047 0 0 0 .81-1.948l4.822-.958v-4.57l-4.826-.958a10.984 10.984 0 0 0-.81-1.948l2.734-4.088L39.4 6.9l-4.09 2.734a11.047 11.047 0 0 0-1.948-.81L32.4 4h-4.57l-.958 4.822a10.984 10.984 0 0 0-1.948.81L20.84 6.9l-3.23 3.23 2.734 4.088a11.047 11.047 0 0 0-.81 1.948l-4.822.958v4.57l4.822.958a10.984 10.984 0 0 0 .81 1.948" style="stroke:#fdb812;stroke-linecap:round;stroke-linejoin:round;stroke-width:2px;fill:none" transform="translate(1280 1052)"/>
                    <path data-name="패스 5130" d="M35.026 23.876a6.469 6.469 0 0 0 1.034-7.616l-4.788 4.784-2.9-.408-.184-2.682 4.73-4.734a6.332 6.332 0 0 0-8.692 8.216l-8.776 8.778a2.5 2.5 0 1 0 3.536 3.534l8.708-8.706a6.444 6.444 0 0 0 7.336-1.168z" style="stroke-linecap:round;stroke-linejoin:round;stroke-width:2px;stroke:#595656;fill:#fff" transform="translate(1280 1052)"/>
                </g>
                <path data-name="패스 5131" d="M31.348 43.976A1.348 1.348 0 1 1 30 42.642a1.343 1.343 0 0 1 1.348 1.334z" style="stroke-linecap:round;stroke-linejoin:round;stroke-width:2px;stroke:#595656;fill:#fff" transform="translate(1280 1052)"/>
            </g>
        </g>
    </g>
</svg>
