<svg xmlns="http://www.w3.org/2000/svg" width="100" height="100" viewBox="0 0 100 100">
    <defs>
        <clipPath id="dhx4vrrbia">
            <path data-name="사각형 762" transform="translate(1280 1052)" style="stroke:#707070;fill:#fff" d="M0 0h60v60H0z"/>
        </clipPath>
    </defs>
    <g data-name="그룹 3600">
        <g data-name="타원 66" style="stroke:#eee;fill:#fff">
            <circle cx="50" cy="50" r="50" style="stroke:none"/>
            <circle cx="50" cy="50" r="49.5" style="fill:none"/>
        </g>
        <g data-name="마스크 그룹 36" style="clip-path:url(#dhx4vrrbia)" transform="translate(-1260 -1032)">
            <path data-name="사각형 833" style="fill:none" d="M0 0h60v60H0z" transform="translate(1280 1052)"/>
            <g data-name="그룹 3688" transform="translate(1280 1052)">
                <path data-name="선 191" transform="translate(28.058 45.33)" style="stroke-linecap:round;stroke-linejoin:round;stroke-width:2px;stroke:#595656;fill:none" d="M0 3.128V0"/>
                <path data-name="선 192" transform="translate(31.946 45.33)" style="stroke-linecap:round;stroke-linejoin:round;stroke-width:2px;stroke:#595656;fill:none" d="M0 0v2.928"/>
                <path data-name="선 193" transform="translate(36.926 52.638)" style="stroke-linecap:round;stroke-linejoin:round;stroke-width:2px;stroke:#595656;fill:none" d="M0 0h9.952"/>
                <path data-name="선 194" transform="translate(13.126 52.638)" style="stroke-linecap:round;stroke-linejoin:round;stroke-width:2px;stroke:#595656;fill:none" d="M0 0h9.606"/>
                <path data-name="선 195" transform="translate(13.126 55.724)" style="stroke-linecap:round;stroke-linejoin:round;stroke-width:2px;stroke:#595656;fill:none" d="M9.672 0H0"/>
                <path data-name="선 196" transform="translate(37.532 55.724)" style="stroke-linecap:round;stroke-linejoin:round;stroke-width:2px;stroke:#595656;fill:none" d="M9.346 0H0"/>
                <path data-name="패스 5132" d="M32.63 52.346v-3.72h-5.256v3.72h-4.422V56h14.1v-3.654z" style="stroke:#fdb812;stroke-linecap:round;stroke-linejoin:round;stroke-width:2px;fill:none"/>
                <path data-name="패스 5133" d="M50.576 24.574a20.58 20.58 0 1 1-5.718-14.23 20.577 20.577 0 0 1 5.718 14.23z" style="stroke-linecap:round;stroke-linejoin:round;stroke-width:2px;stroke:#595656;fill:none"/>
                <path data-name="패스 5134" d="M44.86 10.344A20.525 20.525 0 0 1 30 16.688a20.507 20.507 0 0 1-14.858-6.344 20.571 20.571 0 0 1 29.716 0z" style="stroke-linecap:round;stroke-linejoin:round;stroke-width:2px;stroke:#595656;fill:none"/>
                <path data-name="패스 5135" d="M44.86 38.808a20.571 20.571 0 0 0-29.716 0 20.571 20.571 0 0 0 29.716 0z" style="stroke-linecap:round;stroke-linejoin:round;stroke-width:2px;stroke:#595656;fill:none"/>
                <ellipse data-name="타원 98" cx="10.432" cy="20.576" rx="10.432" ry="20.576" transform="translate(19.57 4)" style="stroke-linecap:round;stroke-linejoin:round;stroke-width:2px;stroke:#595656;fill:none"/>
                <path data-name="선 197" transform="translate(9.426 24.576)" style="stroke-linecap:round;stroke-linejoin:round;stroke-width:2px;stroke:#595656;fill:none" d="M0 0h41.152"/>
                <path data-name="선 198" transform="translate(30.002 4)" style="stroke-linecap:round;stroke-linejoin:round;stroke-width:2px;stroke:#595656;fill:none" d="M0 0v41.152"/>
                <circle data-name="타원 99" cx="2.126" cy="2.126" r="2.126" transform="translate(18.76 12.438)" style="stroke:#fdb812;stroke-linecap:round;stroke-linejoin:round;stroke-width:2px;fill:#fff"/>
                <circle data-name="타원 100" cx="2.126" cy="2.126" r="2.126" transform="translate(38.308 22.452)" style="stroke:#fdb812;stroke-linecap:round;stroke-linejoin:round;stroke-width:2px;fill:#fff"/>
                <circle data-name="타원 101" cx="2.126" cy="2.126" r="2.126" transform="translate(18.76 32.462)" style="stroke:#fdb812;stroke-linecap:round;stroke-linejoin:round;stroke-width:2px;fill:#fff"/>
            </g>
        </g>
    </g>
</svg>
