<?xml version="1.0" encoding="UTF-8"?><svg id="_이어_1" xmlns="http://www.w3.org/2000/svg" xmlns:xlink="http://www.w3.org/1999/xlink" viewBox="0 0 80 80"><defs><style>.cls-1,.cls-2,.cls-3{fill:none;}.cls-2,.cls-4,.cls-5,.cls-6{stroke:#2e253a;stroke-linecap:round;stroke-linejoin:round;stroke-width:1.5px;}.cls-7{clip-path:url(#clippath);}.cls-8{fill:#ff9d39;}.cls-9,.cls-4{fill:#fff;}.cls-10{fill:#ffd44d;}.cls-11,.cls-5{fill:#ff8a36;}.cls-12{fill:#2e253a;}.cls-13{clip-path:url(#clippath-1);}.cls-3{stroke:#ffd44d;stroke-miterlimit:10;stroke-width:.75px;}.cls-6{fill:#ffb551;}</style><clipPath id="clippath"><path class="cls-5" d="M35.85,27.11c0,.88-.09,1.75-.28,2.59-.04,.18-.07,.35-.12,.52,0,0-.84,0-2.11-.04-.02,0-.04,0-.06,0-1.37-.05-3.23-.16-5.04-.4-.62-.08-1.2-.17-1.72-.26h0c-1.98-.33-3.21-.66-3.21-.66v10.8h-.08c-.06,0-.12,0-.18,0-.8-.02-1.58-.1-2.35-.27-5.68-1.19-9.94-6.24-9.94-12.27,0-6.94,5.61-12.55,12.55-12.55,3.94,0,7.46,1.81,9.76,4.67,0,0,.03,.03,.04,.06h0c1.32,1.65,2.23,3.64,2.57,5.82,.11,.64,.17,1.32,.17,2Z"/></clipPath><clipPath id="clippath-1"><path class="cls-10" d="M32.87,29.55c.2-.78,.31-1.6,.31-2.45,0-5.45-4.42-9.88-9.88-9.88s-9.88,4.42-9.88,9.88,4.42,9.88,9.88,9.88v-8.5s1.56,.41,3.89,.73c2.76,.37,5.68,.35,5.68,.35Z"/></clipPath></defs><rect class="cls-1" width="80" height="80"/><g><path class="cls-9" d="M41.91,67.79c-1.72,.29-3.54,.45-5.24,.41-1.93-.04-3.65-.26-5.16-.59,1.75,.32,3.69,.5,5.74,.5,1.64,0,3.21-.11,4.66-.32Z"/><path class="cls-9" d="M32.82,51.12c0,.82-.67,1.47-1.48,1.47s-1.48-.65-1.48-1.47,.66-1.48,1.48-1.48,1.48,.66,1.48,1.48Z"/><path class="cls-9" d="M33.6,39.85c0,.82-.66,1.48-1.48,1.48s-1.47-.66-1.47-1.48,.66-1.48,1.47-1.48,1.48,.66,1.48,1.48Z"/><path class="cls-9" d="M37.95,57.83c0,.82-.66,1.48-1.48,1.48s-1.47-.66-1.47-1.48,.65-1.48,1.47-1.48,1.48,.66,1.48,1.48Z"/><path class="cls-9" d="M40.32,46.18c0,.81-.66,1.47-1.48,1.47s-1.48-.66-1.48-1.47,.66-1.48,1.48-1.48,1.48,.66,1.48,1.48Z"/><path class="cls-11" d="M32.82,51.12c0,.82-.67,1.47-1.48,1.47s-1.48-.65-1.48-1.47,.66-1.48,1.48-1.48,1.48,.66,1.48,1.48Z"/><path class="cls-11" d="M33.6,39.85c0,.82-.66,1.48-1.48,1.48s-1.47-.66-1.47-1.48,.66-1.48,1.47-1.48,1.48,.66,1.48,1.48Z"/><path class="cls-11" d="M37.95,57.83c0,.82-.66,1.48-1.48,1.48s-1.47-.66-1.47-1.48,.65-1.48,1.47-1.48,1.48,.66,1.48,1.48Z"/><path class="cls-11" d="M40.32,46.18c0,.81-.66,1.47-1.48,1.47s-1.48-.66-1.48-1.47,.66-1.48,1.48-1.48,1.48,.66,1.48,1.48Z"/><path class="cls-4" d="M45.2,19.99l-1.48,5.95c-1.81-.55-4.04-.88-6.48-.88-.53,0-1.06,.02-1.57,.06-.34-2.18-1.25-4.17-2.57-5.82h0s-.03-.05-.04-.06c1.32-.17,2.73-.26,4.18-.26,2.53,0,4.91,.28,6.96,.76,.04,0,.06,0,.1,.02,.3,.07,.61,.16,.89,.24Z"/><path class="cls-6" d="M47.73,28.49c-.74,.34-1.57,.64-2.48,.9-.32,.09-.65,.18-.99,.26-.41,.1-.85,.18-1.3,.27h-.03c-1.73,.31-3.66,.49-5.68,.49-1.35,0-2.66-.08-3.91-.23,1.27,.05,2.11,.04,2.11,.04,.05-.17,.08-.34,.12-.52,.18-.84,.28-1.7,.28-2.59,0-.68-.06-1.35-.17-2,.51-.04,1.03-.06,1.57-.06,2.43,0,4.67,.33,6.48,.88l-.72,2.86c-.07,.3-.04,.61,.06,.89,.06,0,.14,0,.21,0s.16-.02,.24-.03c.23-.03,.49-.08,.75-.14,.17-.05,.33-.08,.5-.13,.9-.24,1.74-.53,1.74-.53l.34-1.39c.41,.31,.71,.66,.89,1.02Z"/><path class="cls-2" d="M44.15,67.36c-.42,.1-.87,.19-1.32,.27"/><path class="cls-4" d="M55.88,7.78s-3.79,4.42-4.87,5.78c-.9,1.12-1.39,2.65-1.39,2.67l-1.19,4.81-.05,.17-1.55,6.25-.34,1.39s-.84,.29-1.74,.53c-.17,.05-.33,.08-.5,.13-.26,.06-.52,.11-.75,.14-.08,0-.17,.02-.24,.03s-.15,0-.21,0c-.09-.29-.13-.59-.06-.89l.72-2.86,1.48-5.95,.02-.07,1.15-4.59c.08-.3,.71-2.27,2-3.88,1.13-1.41,4.8-5.68,4.95-5.87,.61-.7,1.68-.78,2.38-.18,.71,.61,.79,1.68,.18,2.38Z"/><path class="cls-5" d="M56.09,48.69c-1.7,0-3.33,.32-4.82,.91,0,0-.02,0-.03,0-.57,.23-1.12,.49-1.65,.79-.57,.32-1.1,.69-1.61,1.09h0c-.39,.31-.76,.64-1.11,.99-.96,.93-1.76,2.01-2.38,3.2-.08,.14-.16,.29-.23,.43-.13,.25-.24,.51-.35,.77-.07,.18-.15,.37-.21,.56-.32,.9-.55,1.86-.66,2.84-.03,.21-.05,.41-.06,.62-.03,.31-.04,.63-.04,.94,0,.64,.05,1.27,.13,1.89,.18,1.28,.55,2.5,1.08,3.62,0,0,0,0,0,0,2.08,4.51,6.64,7.64,11.94,7.64,7.27,0,13.15-5.89,13.15-13.15s-5.89-13.15-13.15-13.15Zm-.11,8.06c-1.08,0-1.96-.65-1.96-1.47s.88-1.46,1.96-1.46,1.97,.65,1.97,1.46-.88,1.47-1.97,1.47Z"/><path class="cls-5" d="M57.95,55.28c0,.82-.88,1.47-1.97,1.47s-1.96-.65-1.96-1.47,.88-1.46,1.96-1.46,1.97,.65,1.97,1.46Z"/><path class="cls-12" d="M57.95,55.28c0,.82-.88,1.47-1.97,1.47s-1.96-.65-1.96-1.47,.88-1.46,1.96-1.46,1.97,.65,1.97,1.46Z"/><path class="cls-4" d="M51.27,24.84v24.77l-.03-.03v.04c-.57,.23-1.12,.49-1.65,.79-.57,.32-1.1,.69-1.61,1.09V29.4c0-.31-.09-.61-.26-.9,.46-.21,.89-.44,1.27-.68,.29-.18,.56-.37,.8-.57,0,0,.03,0,.04-.04,.06-.05,.12-.09,.18-.15,.02,0,.03-.03,.05-.04,.08-.07,.17-.15,.24-.23h0c.1-.1,.18-.19,.26-.29,0,0,.02-.02,.03-.04,.09-.11,.18-.22,.24-.33,.07-.11,.14-.23,.18-.34,.06-.11,.1-.23,.14-.34,.07-.19,.11-.4,.12-.61h0Z"/><path class="cls-4" d="M51.27,24.7s0,.09,0,.14c0,.21-.05,.41-.12,.61-.04,.11-.08,.23-.14,.34-.05,.11-.11,.23-.18,.34-.06,.11-.15,.22-.24,.33,0,.02-.02,.03-.03,.04-.08,.09-.17,.19-.26,.29h0c-.07,.09-.16,.17-.24,.24-.02,0-.03,.03-.05,.04-.06,.06-.12,.1-.18,.15,0,.03-.03,.04-.04,.04-.24,.2-.51,.39-.8,.57-.38,.24-.81,.47-1.27,.68-.18-.36-.49-.71-.89-1.02l1.55-6.25c.34,.18,.64,.37,.93,.56,1.24,.85,1.96,1.85,1.96,2.92Z"/><path class="cls-5" d="M35.85,27.11c0,.88-.09,1.75-.28,2.59-.04,.18-.07,.35-.12,.52,0,0-.84,0-2.11-.04-.02,0-.04,0-.06,0-1.37-.05-3.23-.16-5.04-.4-.62-.08-1.2-.17-1.72-.26h0c-1.98-.33-3.21-.66-3.21-.66v10.8h-.08c-.06,0-.12,0-.18,0-.8-.02-1.58-.1-2.35-.27-5.68-1.19-9.94-6.24-9.94-12.27,0-6.94,5.61-12.55,12.55-12.55,3.94,0,7.46,1.81,9.76,4.67,0,0,.03,.03,.04,.06h0c1.32,1.65,2.23,3.64,2.57,5.82,.11,.64,.17,1.32,.17,2Z"/><path class="cls-6" d="M47.99,29.4v.04c0,.21-.04,.42-.11,.64-.38,1.07-1.7,2.01-3.62,2.68-1.88,.66-4.34,1.06-7.01,1.06-5.87,0-10.63-1.91-10.73-4.29,.53,.09,1.11,.18,1.72,.26,1.81,.24,3.67,.35,5.04,.4,.03,0,.05,0,.06,0,1.24,.15,2.55,.23,3.91,.23,2.03,0,3.95-.18,5.68-.49h.03c.45-.08,.88-.17,1.3-.27,.34-.08,.67-.17,.99-.26,.91-.26,1.74-.56,2.48-.9,.17,.29,.25,.59,.26,.9Z"/><path class="cls-4" d="M44.15,67.35c-.42,.1-.87,.19-1.31,.28-.3,.06-.62,.11-.93,.16-1.46,.21-3.02,.32-4.66,.32-2.04,0-3.99-.18-5.74-.5-.03,0-.06,0-.08-.02-4.7-.88-8-2.77-8.2-4.98v-.1l.06-22.85v-10.8s1.23,.33,3.21,.66v30.54c0,2.41,4.81,4.38,10.74,4.38,2.15,0,4.15-.26,5.82-.7,.18,1.28,.55,2.5,1.08,3.62Z"/><path class="cls-5" d="M47.99,29.44v22.06h0c-.39,.31-.76,.64-1.11,.99-.96,.93-1.76,2.01-2.38,3.2-.09,.14-.17,.29-.23,.43-.13,.25-.24,.51-.35,.77-.07,.18-.15,.37-.21,.56-.32,.9-.55,1.86-.66,2.84-.03,.21-.05,.41-.06,.62-.03,.31-.04,.63-.04,.94,0,.64,.05,1.27,.13,1.89-1.68,.44-3.68,.7-5.82,.7-5.93,0-10.74-1.96-10.74-4.38V29.52h0c.1,2.39,4.86,4.29,10.73,4.29,2.67,0,5.13-.4,7.01-1.06,1.92-.67,3.24-1.61,3.62-2.68,.07-.21,.11-.42,.11-.64Z"/><g><path class="cls-11" d="M35.85,27.11c0,.88-.09,1.75-.28,2.59-.04,.18-.07,.35-.12,.52,0,0-.84,0-2.11-.04-.02,0-.04,0-.06,0-1.37-.05-3.23-.16-5.04-.4-.62-.08-1.2-.17-1.72-.26h0c-1.98-.33-3.21-.66-3.21-.66v10.8h-.08c-.06,0-.12,0-.18,0-.8-.02-1.58-.1-2.35-.27-5.68-1.19-9.94-6.24-9.94-12.27,0-6.94,5.61-12.55,12.55-12.55,3.94,0,7.46,1.81,9.76,4.67,0,0,.03,.03,.04,.06h0c1.32,1.65,2.23,3.64,2.57,5.82,.11,.64,.17,1.32,.17,2Z"/><g class="cls-7"><g><path class="cls-10" d="M32.87,29.55c.2-.78,.31-1.6,.31-2.45,0-5.45-4.42-9.88-9.88-9.88s-9.88,4.42-9.88,9.88,4.42,9.88,9.88,9.88v-8.5s1.56,.41,3.89,.73c2.76,.37,5.68,.35,5.68,.35Z"/><g class="cls-13"><path class="cls-8" d="M31.46,23.26c-.8-1.44-2.31-1.88-2.57-1.95l.08-.11s-.34-1.42-1.96-2.19c-1.91-.91-3.56-.3-3.69-.25-.13-.05-2.05-.77-3.91,.27-1.57,.88-1.74,2.17-1.74,2.17l1,1.01-1.03-.81s-1.71,.46-2.48,2.09c-.91,1.91-.3,3.56-.25,3.69-.05,.13-.77,2.05,.27,3.9,.88,1.57,2.17,1.74,2.17,1.74l.11-.1c.04,.3,.35,1.67,2.17,2.61,1.88,.98,3.56,.3,3.69,.25,.13,.05,2.05,.77,3.9-.28,1.57-.88,1.74-2.16,1.74-2.16l-.4-.83,.72,.51s1.42-.34,2.19-1.96c.91-1.91,.3-3.56,.25-3.69,.05-.13,.77-2.05-.27-3.9Z"/><g><line class="cls-3" x1="23.3" y1="17.57" x2="23.3" y2="35.98"/><line class="cls-3" x1="32.5" y1="26.78" x2="14.09" y2="26.78"/><line class="cls-3" x1="29.8" y1="20.27" x2="16.79" y2="33.29"/><line class="cls-3" x1="29.8" y1="33.29" x2="16.79" y2="20.27"/></g><circle class="cls-10" cx="23.3" cy="27.13" r="1.64"/></g></g></g><path class="cls-2" d="M35.85,27.11c0,.88-.09,1.75-.28,2.59-.04,.18-.07,.35-.12,.52,0,0-.84,0-2.11-.04-.02,0-.04,0-.06,0-1.37-.05-3.23-.16-5.04-.4-.62-.08-1.2-.17-1.72-.26h0c-1.98-.33-3.21-.66-3.21-.66v10.8h-.08c-.06,0-.12,0-.18,0-.8-.02-1.58-.1-2.35-.27-5.68-1.19-9.94-6.24-9.94-12.27,0-6.94,5.61-12.55,12.55-12.55,3.94,0,7.46,1.81,9.76,4.67,0,0,.03,.03,.04,.06h0c1.32,1.65,2.23,3.64,2.57,5.82,.11,.64,.17,1.32,.17,2Z"/></g><path class="cls-10" d="M33.6,39.85c0,.82-.66,1.48-1.48,1.48s-1.47-.66-1.47-1.48,.66-1.48,1.47-1.48,1.48,.66,1.48,1.48Z"/><path class="cls-10" d="M40.32,46.18c0,.81-.66,1.47-1.48,1.47s-1.48-.66-1.48-1.47,.66-1.48,1.48-1.48,1.48,.66,1.48,1.48Z"/><path class="cls-10" d="M32.82,51.12c0,.82-.67,1.47-1.48,1.47s-1.48-.65-1.48-1.47,.66-1.48,1.48-1.48,1.48,.66,1.48,1.48Z"/><path class="cls-10" d="M37.95,57.83c0,.82-.66,1.48-1.48,1.48s-1.47-.66-1.47-1.48,.65-1.48,1.47-1.48,1.48,.66,1.48,1.48Z"/><path class="cls-10" d="M44.47,37.48c0,.28-.07,.53-.21,.76-.26,.43-.73,.73-1.27,.73-.82,0-1.48-.66-1.48-1.48s.66-1.48,1.48-1.48c.54,0,1.01,.29,1.27,.73,.14,.22,.21,.48,.21,.76Z"/><path class="cls-10" d="M45.06,52.89c0,.57-.32,1.08-.8,1.31-.2,.12-.43,.17-.67,.17-.82,0-1.48-.66-1.48-1.48s.66-1.48,1.48-1.48c.24,0,.47,.06,.67,.18,.48,.23,.8,.74,.8,1.31Z"/></g></svg>