<?xml version="1.0" encoding="UTF-8"?><svg id="_이어_1" xmlns="http://www.w3.org/2000/svg" viewBox="0 0 72 72"><defs><style>.cls-1,.cls-2{fill:none;}.cls-2{stroke:#fff;stroke-linecap:round;stroke-linejoin:round;stroke-width:5px;}</style></defs><rect class="cls-1" width="72" height="72"/><g><g><path class="cls-2" d="M21.05,53.89v4.24c0,4.7-3.68,8.51-8.31,8.81,.19,.02,.37,.06,.56,.06H56.9c4.9,0,8.86-3.97,8.86-8.87v-4.24H21.05Z"/><path class="cls-2" d="M56.68,53.89V5H6.23V59.92c0,3.72,2.87,6.73,6.51,7.03"/><path class="cls-2" d="M12.18,67h1.13c-.19,0-.38-.04-.56-.06-.19,.01-.37,.06-.56,.06Z"/></g><line class="cls-2" x1="19.53" y1="20.99" x2="26.52" y2="20.99"/><line class="cls-2" x1="19.53" y1="32.35" x2="41.39" y2="32.35"/></g></svg>