<?xml version="1.0" encoding="UTF-8"?><svg id="_이어_1" xmlns="http://www.w3.org/2000/svg" viewBox="0 0 72 72"><defs><style>.cls-1,.cls-2{fill:none;}.cls-2{stroke:#fff;stroke-linecap:round;stroke-linejoin:round;stroke-width:5px;}</style></defs><rect class="cls-1" width="72" height="72"/><g><path class="cls-2" d="M23.71,36H5c0,17.12,13.88,31,31,31-6.78,0-12.28-13.88-12.28-31Z"/><path class="cls-2" d="M36,5c-17.12,0-31,13.88-31,31H23.71c0-17.12,5.5-31,12.28-31Z"/><path class="cls-2" d="M36,67c17.12,0,31-13.88,31-31h-18.72c0,17.12-5.5,31-12.28,31Z"/><path class="cls-2" d="M36,5c6.78,0,12.28,13.88,12.28,31h18.72c0-17.12-13.88-31-31-31Z"/><path class="cls-2" d="M23.71,36h24.57c0-17.12-5.5-31-12.28-31s-12.28,13.88-12.28,31Z"/><path class="cls-2" d="M48.28,36H23.71c0,17.12,5.5,31,12.28,31s12.28-13.88,12.28-31Z"/></g></svg>