<?xml version="1.0" encoding="UTF-8"?><svg id="_이어_1" xmlns="http://www.w3.org/2000/svg" viewBox="0 0 72 72"><defs><style>.cls-1,.cls-2{fill:none;}.cls-2{stroke:#fff;stroke-linecap:round;stroke-linejoin:round;stroke-width:5px;}</style></defs><rect class="cls-1" width="72" height="72"/><g id="_룹_2789" transform="translate(0 3)"><path id="_스_1413" class="cls-2" d="M18.85,67c-4.59,0-8.31-3.73-8.3-8.32,0-1.75,.56-3.46,1.58-4.87l.03-.05,10.38-14.3-9.9-3.22c-4.37-1.42-6.76-6.11-5.34-10.47,1.42-4.37,6.11-6.76,10.47-5.34h.02l9.88,3.21V13.23c.05-4.59,3.81-8.28,8.4-8.23,4.53,.04,8.19,3.7,8.23,8.23v10.41l9.9-3.21c4.37-1.42,9.06,.97,10.47,5.34,1.42,4.37-.97,9.06-5.34,10.47l-9.9,3.22,6.11,8.42c2.69,3.72,1.86,8.92-1.86,11.61-3.71,2.68-8.89,1.86-11.59-1.83l-.02-.02-6.1-8.4-10.43,14.34c-1.56,2.16-4.07,3.43-6.73,3.43Z"/></g></svg>