<svg xmlns="http://www.w3.org/2000/svg" xmlns:xlink="http://www.w3.org/1999/xlink" width="92.735" height="30" viewBox="0 0 92.735 30">
				  <defs>
					<linearGradient id="linear-gradient" x1="0.322" y1="0.722" x2="0.816" y2="0.054" gradientUnits="objectBoundingBox">
					  <stop offset="0" stop-color="#f6a30f"></stop>
					  <stop offset="0.837" stop-color="#ed7c10"></stop>
					</linearGradient>
				  </defs>
				  <g id="그룹_2600" data-name="그룹 2600" transform="translate(-570.116 -165.022)">
					<g id="그룹_2602" data-name="그룹 2602" transform="translate(570.116 165.022)">
					  <g id="그룹_2600-2" data-name="그룹 2600" transform="translate(39.345)">
						<path id="패스_1322" data-name="패스 1322" d="M648.79,177a1.6,1.6,0,0,1-1.3-2.546l.006-.009,2-2.759-1.91-.621a1.6,1.6,0,0,1,.991-3.05l0,0,1.905.618v-2.008a1.6,1.6,0,0,1,3.207,0v2.008l1.91-.62a1.6,1.6,0,0,1,.991,3.05l-1.909.621,1.179,1.624a1.6,1.6,0,0,1-2.594,1.886l0,0-1.178-1.62-2.011,2.767A1.6,1.6,0,0,1,648.79,177Z" transform="translate(-646.486 -165.022)" fill="url(#linear-gradient)"></path>
					  </g>
					  <path id="패스_1323" data-name="패스 1323" d="M590.729,183.327c.762,0,1.127.364,1.127,1.093v2.486H571.243c-.762,0-1.127-.365-1.127-1.094v-2.485H578.6v-1.591c-4.043-.431-5.733-1.69-6.064-4.573a38.538,38.538,0,0,1,.066-6.76h2.916c.729,0,.994.331.994,1.027-.033.4-.033.862-.066,1.359h9.08V170.4h2.95c.762,0,1.127.365,1.127,1.094v9.113a22.861,22.861,0,0,1-6.23,1.193v1.524Zm-1.061,8.45a23.533,23.533,0,0,1-.132,4.01c-.3,1.392-1.69,1.922-4.109,1.624v-5.137H573.4c-.762,0-1.126-.365-1.126-1.094v-2.552h16.27c.762,0,1.126.365,1.126,1.094Zm-10.7-13.487a20.819,20.819,0,0,0,6.561-.232V176.07H576.48a.733.733,0,0,1,.033.265C576.612,177.528,577.308,178.058,578.965,178.29Z" transform="translate(-570.116 -167.631)" fill="#f6a30f"></path>
					  <g id="그룹_2601" data-name="그룹 2601" transform="translate(21.74 8.065)">
						<path id="패스_1324" data-name="패스 1324" d="M651.062,195.289V181.77c0-.729-.364-1.093-1.127-1.093H646.82v19.649c2.585.265,3.811-.232,4.109-1.624A17.239,17.239,0,0,0,651.062,195.289Z" transform="translate(-629.043 -180.677)" fill="#f6a30f"></path>
						<path id="패스_1325" data-name="패스 1325" d="M623.382,190.39c-.02-.036.181-.344.206-.393q.114-.225.224-.452.22-.459.413-.93a18.038,18.038,0,0,0,.653-1.874c.025-.124.057-.248.079-.373a9.8,9.8,0,0,0,.083-1.535,11.389,11.389,0,0,0-.069-1.9,1.02,1.02,0,0,0-.166-.439.761.761,0,0,0-.17-.182,1.155,1.155,0,0,0-.7-.189H613.828v2.551c0,.729.364,1.094,1.127,1.094h6.073a.028.028,0,0,1,.016.007c-1.116,4.062-4.641,7.31-8.729,9.867a2.779,2.779,0,0,0,.843,1.8,1.857,1.857,0,0,0,.507.347,3.594,3.594,0,0,0,.347.151,2.5,2.5,0,0,0,1.035.167,3.245,3.245,0,0,0,1.653-.642,25.537,25.537,0,0,0,3.716-3.141c.094-.1.192-.186.284-.286l.417.522,2.821,3.528a3.621,3.621,0,0,0,1.391.016,2.749,2.749,0,0,0,.895-.338,2.3,2.3,0,0,0,.376-.272,1.784,1.784,0,0,0,.267-.313,2.145,2.145,0,0,0-.071-2.319,6.063,6.063,0,0,0-.448-.706Z" transform="translate(-612.314 -181.377)" fill="#f6a30f"></path>
					  </g>
					</g>
					<g id="그룹_2604" data-name="그룹 2604" transform="translate(619.886 167.654)">
					  <g id="그룹_2603" data-name="그룹 2603" transform="translate(0 3.884)">
						<path id="패스_1326" data-name="패스 1326" d="M667.847,212.511c-.762,0-1.127-.364-1.127-1.093v-2.552h20.613c.763,0,1.127.365,1.127,1.094v2.551Z" transform="translate(-666.72 -192.794)" fill="#1a1919"></path>
						<path id="패스_1327" data-name="패스 1327" d="M671.431,177.67h15.111c.761,0,1.126.364,1.126.994v2.784H675.209a33.9,33.9,0,0,0-.033,3.678c.132,1.193.894,1.856,2.551,2.088a41.344,41.344,0,0,0,9.047-.033c.961-.1,1.557.3,1.557,1.193v2.286a48.429,48.429,0,0,1-11.4.365c-3.413-.365-5.236-1.756-5.7-3.778C670.8,185.424,670.868,181.481,671.431,177.67Z" transform="translate(-668.772 -177.67)" fill="#1a1919"></path>
					  </g>
					  <path id="패스_1328" data-name="패스 1328" d="M710.906,181.431a17.2,17.2,0,0,1,.165-5.5h7.821v-1.624H711.9c-.763,0-1.127-.365-1.127-1.094v-2.154h11.068c.663,0,1.027.365,1.027,1.094v6.893h-8.185a5.5,5.5,0,0,0,.033,1.293c.132.663.7.961,2.353,1.093a43.851,43.851,0,0,0,6-.1,1.037,1.037,0,0,1,1.259,1.094v2.121a35.682,35.682,0,0,1-7.821.332C713.026,184.679,711.337,183.618,710.906,181.431Zm3.512,12.261a16.328,16.328,0,0,1,.232-6.793h14.911a.923.923,0,0,1,1.061,1.027v7.224c-2.12,1.69-5.7,2.518-9.643,2.319C717.3,197.238,715.015,195.979,714.418,193.692Zm12.195-.6v-2.817h-8.483c-.232,2.121.364,3.048,2.22,3.446A11.37,11.37,0,0,0,726.613,193.1Zm.166-22.965h3.115c.762,0,1.127.365,1.127,1.094v8.483a17.236,17.236,0,0,1-.133,3.413c-.3,1.392-1.524,1.889-4.109,1.624Z" transform="translate(-688.065 -170.131)" fill="#1a1919"></path>
					</g>
				  </g>
				</svg>