<?xml version="1.0" encoding="UTF-8"?><svg id="_이어_1" xmlns="http://www.w3.org/2000/svg" viewBox="0 0 80 80"><defs><style>.cls-1,.cls-2,.cls-3{fill:none;}.cls-2,.cls-3,.cls-4{stroke-linecap:round;stroke-linejoin:round;}.cls-2,.cls-4{stroke:#2e253a;stroke-width:1.5px;}.cls-3{stroke:#2e3f96;stroke-width:.75px;}.cls-5,.cls-4{fill:#fff;}.cls-6{fill:#d3d8e0;}.cls-7{fill:#2e3f96;}.cls-8{fill:#76d9ff;}</style></defs><rect class="cls-1" width="80" height="80"/><g><g><path class="cls-4" d="M5.88,22.29L27.1,8.07s3.49-2.53,7.64-.16c3.38,1.93,20.82,14.63,20.82,14.63"/><path class="cls-6" d="M34.22,35.32c3.25-1.75,14.64-8.69,21.35-12.81-.5-.66-1.28-1.1-2.18-1.1H7.73c-.8,0-1.52,.35-2.02,.91l18.74,11.31s5.06,4.22,9.77,1.69Z"/><path class="cls-5" d="M34.22,35.32c-4.7,2.53-9.77-1.69-9.77-1.69L5.71,22.32c-.44,.48-.71,1.12-.71,1.83v22.02c0,1.51,1.22,2.74,2.73,2.74H53.39c1.51,0,2.73-1.22,2.73-2.74V24.14c0-.62-.21-1.18-.56-1.64-6.71,4.12-18.1,11.06-21.35,12.81Z"/><path class="cls-2" d="M7.74,21.41H53.39c1.51,0,2.73,1.23,2.73,2.73v22.03c0,1.51-1.23,2.73-2.73,2.73H7.73c-1.51,0-2.73-1.23-2.73-2.73V24.15c0-1.51,1.23-2.74,2.74-2.74Z"/><path class="cls-2" d="M5.88,22.74l21.22,12.09s3.49,2.15,7.64,.14c3.38-1.64,20.82-12.44,20.82-12.44"/><line class="cls-2" x1="5.76" y1="47.62" x2="26.38" y2="35.2"/><line class="cls-2" x1="55.44" y1="47.62" x2="34.82" y2="35.2"/></g><g><rect class="cls-5" x="28.17" y="51.71" width="44.86" height="20.02" transform="translate(-3.46 3.01) rotate(-3.29)"/><g><line class="cls-3" x1="37.83" y1="61.15" x2="41.2" y2="60.96"/><line class="cls-3" x1="59.81" y1="60.44" x2="62.84" y2="60.26"/><line class="cls-3" x1="39.55" y1="61.29" x2="39.73" y2="64.37"/><line class="cls-3" x1="43.53" y1="62.37" x2="43.63" y2="64.14"/><path class="cls-3" d="M61.1,59.15l.18,3.08s-.14,1.23,.96,1.16"/><line class="cls-3" x1="50.16" y1="59.97" x2="50.37" y2="63.75"/><path class="cls-7" d="M44.2,60.64c.02,.41-.29,.76-.69,.78-.41,.02-.76-.29-.79-.7-.02-.41,.29-.76,.7-.78,.41-.02,.76,.29,.78,.7Z"/><path class="cls-3" d="M48.3,63.5c-.26,.25-.59,.41-.97,.43-.87,.05-1.61-.65-1.66-1.56-.05-.91,.61-1.69,1.47-1.74,.33-.02,.65,.07,.91,.24"/><polyline class="cls-3" points="52.67 60.42 50.47 62.27 52.96 63.37"/><path class="cls-3" d="M58,63.31c-.42,.23-.98,.35-1.33,.35-1.27,0-1.9-.72-1.96-1.74-.06-1.02,.72-1.9,1.74-1.96,.92-.05,1.82,.72,1.83,1.55l-3.07,.29"/></g><g><path class="cls-8" d="M28.96,62c.31-.17,8.83-8.87,8.83-8.87l-9.91-.12,1.08,9Z"/><path class="cls-8" d="M72.13,59.52c-.33-.14-9.79-7.8-9.79-7.8l9.83-1.26-.04,9.06Z"/></g><g><path class="cls-8" d="M72.22,61.2c-.31,.18-8.8,9.2-8.8,9.2l9.91,.15-1.11-9.36Z"/><path class="cls-8" d="M29.05,63.69c.33,.14,9.81,8.13,9.81,8.13l-9.83,1.29,.02-9.42Z"/></g><rect class="cls-2" x="28.17" y="51.71" width="44.86" height="20.02" transform="translate(-3.46 3.01) rotate(-3.29)"/></g><g><rect class="cls-5" x="28.02" y="38.56" width="44.86" height="20.02" transform="translate(-15.79 25.84) rotate(-24.97)"/><g><line class="cls-3" x1="38.37" y1="52.76" x2="41.42" y2="51.34"/><line class="cls-3" x1="58.53" y1="43.97" x2="61.28" y2="42.69"/><line class="cls-3" x1="40.02" y1="52.25" x2="41.32" y2="55.04"/><line class="cls-3" x1="44.12" y1="51.78" x2="44.87" y2="53.39"/><path class="cls-3" d="M59.26,42.29l1.3,2.8s.32,1.19,1.32,.73"/><line class="cls-3" x1="49.38" y1="47.11" x2="50.98" y2="50.54"/><path class="cls-7" d="M44.1,49.92c.17,.37,.01,.81-.36,.98-.37,.17-.81,.01-.99-.36-.17-.37-.01-.81,.36-.98,.37-.17,.81-.01,.98,.36Z"/><path class="cls-3" d="M48.97,51.07c-.15,.33-.4,.6-.75,.76-.78,.37-1.74,0-2.12-.83-.38-.83-.06-1.8,.73-2.16,.3-.14,.63-.17,.93-.11"/><polyline class="cls-3" points="51.89 46.6 50.52 49.13 53.25 49.23"/><path class="cls-3" d="M57.91,47.32c-.3,.37-.78,.69-1.1,.82-1.18,.46-2.03,.03-2.46-.9-.43-.93-.03-2.03,.9-2.46,.83-.39,1.96,0,2.28,.76l-2.75,1.4"/></g><g><path class="cls-8" d="M30.43,56.82c.23-.28,4.93-11.5,4.93-11.5l-9.26,3.54,4.33,7.96Z"/><path class="cls-8" d="M69.64,38.57c-.36,0-11.98-3.63-11.98-3.63l8.67-4.8,3.31,8.44Z"/></g><g><path class="cls-8" d="M70.35,40.1c-.22,.28-4.79,11.81-4.79,11.81l9.27-3.52-4.48-8.29Z"/><path class="cls-8" d="M31.15,58.35c.36,.01,12.12,3.93,12.12,3.93l-8.66,4.83-3.46-8.76Z"/></g><rect class="cls-2" x="28.02" y="38.56" width="44.86" height="20.02" transform="translate(-15.79 25.84) rotate(-24.97)"/></g></g></svg>