<?xml version="1.0" encoding="UTF-8"?><svg id="_이어_1" xmlns="http://www.w3.org/2000/svg" viewBox="0 0 80 80"><defs><style>.cls-1{fill:none;}.cls-2,.cls-3{fill:#fff;}.cls-3,.cls-4{stroke:#2e253a;stroke-linecap:round;stroke-linejoin:round;stroke-width:1.5px;}.cls-4{fill:#9fe6e8;}</style></defs><rect class="cls-1" width="80" height="80"/><g><g><path class="cls-4" d="M27.19,50.15c-13-.62-22.19-2.16-22.19-3.96,0-1.03,2.98-1.97,7.97-2.7-.03,.44-.04,.88-.04,1.34,0,0,3.87,.9,11.69,1.5,.66,1.1,1.43,2.34,2.06,3.25,.15,.19,.31,.39,.51,.57Z"/><path class="cls-4" d="M48.57,46.68l-2.68,3.71c-1.91,.04-3.88,.06-5.89,.06-1.16,0-2.31,0-3.44-.02l-1.2-1.51c.71-.63,1.11-1.34,1.31-2.06,.9,0,1.83,.02,2.78,.02,3.32,0,6.36-.07,9.12-.19Z"/><path class="cls-4" d="M75,46.19c0,1.79-9.07,3.32-21.92,3.95l.06-.08c.94-1.33,1.66-2.6,2.21-3.79,7.64-.6,11.72-1.45,11.72-1.45,0-.45,0-.89-.04-1.34,4.98,.73,7.97,1.67,7.97,2.7Z"/><path class="cls-4" d="M56.67,42.45c.92-4.14-.18-6.73-.18-6.73l-4.68,6.48-3.24,4.49c-2.75,.12-5.8,.19-9.12,.19-.95,0-1.88,0-2.78-.02,.42-1.58-.18-3.21-.97-4.26-.17-.19-.34-.41-.53-.62-1.58-1.78-3.96-4.11-4.07-4.22-.63-.62-1.64-.61-2.26,.02-.62,.63-.61,1.64,.02,2.26,.02,.02,.97,.95,2.04,2.04,.82,.86,1.71,1.8,2.31,2.51,.2,.26,.74,1.09,.21,1.78l-3.26-4.26-1.64-2.15c-.53-.7-1.53-.83-2.24-.29-.7,.53-.83,1.54-.29,2.24l.28,.37,3.34,4.36,1.28,1.68c-.73,.29-1.34-.27-1.62-.62-.22-.32-.47-.7-.73-1.11-1.11-1.74-2.39-3.99-2.55-4.3-.02-.02-.03-.04-.03-.04-.43-.76-1.4-1.04-2.17-.61-.34,.19-.58,.48-.7,.82-.18,.42-.15,.92,.09,1.35,.05,.08,.66,1.19,1.45,2.51-7.82-.6-11.69-1.5-11.69-1.5,0-.45,0-.89,.04-1.34,.69-14.33,12.54-25.73,27.03-25.73s26.34,11.4,27.03,25.73c.03,.44,.04,.88,.04,1.34,0,0-4.08,.85-11.72,1.45,.65-1.38,1.07-2.66,1.33-3.82Z"/><path class="cls-4" d="M42.16,13.35c0,1.81-.9,4.13-2.02,4.13s-2.02-2.26-2.02-4.13c0-1.12,.9-2.02,2.02-2.02s2.02,.91,2.02,2.02Z"/><path class="cls-2" d="M55.87,32.65c-.38,.26-.8,.39-1.23,.39-.67,0-1.34-.32-1.77-.92-1.27-1.83-2.93-3.13-5.2-4.07-1.1-.45-1.62-1.71-1.17-2.82,.46-1.1,1.72-1.62,2.82-1.16,3.02,1.25,5.34,3.08,7.09,5.58,.68,.98,.44,2.32-.53,3Z"/></g><g><path class="cls-3" d="M39.06,59.47l2.25,3.27c-1.42,2.35-3.09,5.12-3.09,5.12-.64,.87-1.8,1.2-3.15,.18-1.11-.85-1.52-2.06-.89-2.93,0,0,2.96-3.41,4.89-5.64Z"/><path class="cls-3" d="M56.67,42.45c-.26,1.16-.67,2.44-1.33,3.82-.55,1.19-1.27,2.46-2.21,3.79l-.06,.08c-4.36,6.12-8.01,8.32-9.43,9.14l-1.79-2.15-.44-.56,4.47-6.18,2.68-3.71,3.24-4.49,4.68-6.48s1.11,2.59,.18,6.73Z"/><path class="cls-3" d="M47.93,68.11c-.7,.54-2.29,.86-2.83,.16l-3.79-5.53-2.25-3.27-.06-.09-6.17-8.52c-2.18,1.43-4.38,.52-5.64-.71-.19-.18-.36-.38-.51-.57-.64-.91-1.4-2.16-2.06-3.25-.78-1.32-1.4-2.42-1.45-2.51-.24-.43-.27-.93-.09-1.35,.12-.34,.36-.63,.7-.82,.77-.43,1.74-.16,2.17,.61,0,0,0,.02,.03,.04,.17,.31,1.45,2.56,2.55,4.3,.26,.41,.51,.78,.73,1.11,.28,.35,.89,.91,1.62,.62l-1.28-1.68-3.34-4.36-.28-.37c-.53-.7-.41-1.7,.29-2.24,.71-.53,1.7-.41,2.24,.29l1.64,2.15,3.26,4.26c.53-.69,0-1.52-.21-1.78-.6-.72-1.49-1.66-2.31-2.51-1.07-1.1-2.02-2.03-2.04-2.04-.63-.62-.64-1.63-.02-2.26,.62-.63,1.63-.64,2.26-.02,.11,.11,2.49,2.44,4.07,4.22,.19,.21,.37,.42,.53,.62,.79,1.04,1.39,2.68,.97,4.26-.19,.73-.6,1.44-1.31,2.06l1.2,1.51,4.86,6.14,.44,.56,1.79,2.15,5.05,6.05c.53,.71,.47,1.84-.76,2.78Z"/></g></g></svg>